<svg xmlns="http://www.w3.org/2000/svg" width="108" height="84" viewBox="0 0 108 84" fill="none"><path d="M0 0H66C89.196 0 108 18.804 108 42C108 65.196 89.196 84 66 84H0V0Z" fill="rgba(25, 30, 48, 1)"></path><path fill-rule="evenodd" clip-rule="evenodd" d="M66 22C77.0457 22 86 30.9543 86 42C86 53.0457 77.0457 62 66 62C54.9543 62 46 53.0457 46 42C46 30.9543 54.9543 22 66 22ZM69.3367 36.5025H67.2977L62.6632 49.12H64.7022L69.3367 36.5025ZM61.4977 38.6938L53.736 42.2208V44.256L61.4977 47.783V45.6548L55.453 43.2205L61.4977 40.8022V38.6938ZM70.5023 38.6938V40.822L76.547 43.2563L70.5023 45.6745V47.783L78.264 44.256V42.2208L70.5023 38.6938Z" fill="white"></path></svg>