<svg xmlns="http://www.w3.org/2000/svg" width="108" height="84" viewBox="0 0 108 84" fill="none"><path d="M0 0H66C89.196 0 108 18.804 108 42C108 65.196 89.196 84 66 84H0V0Z" fill="rgba(25, 30, 48, 1)"></path><path fill-rule="evenodd" clip-rule="evenodd" d="M70.8759 18C70.8759 18 75.9297 23.0504 66.0661 30.6636C59.9463 35.4402 62.2192 38.6326 64.3956 41.6896C65.0311 42.5821 65.6584 43.4631 66.0661 44.3687C61.4198 40.2814 58.0778 36.6751 60.3596 33.3078C61.4727 31.6533 63.2363 30.2831 65.0186 28.8984C68.5889 26.1246 72.234 23.2926 70.8748 18H70.8759ZM68.2672 41.0024C70.6307 43.6476 67.6145 46.0529 67.6145 46.0529C67.6145 46.0529 73.6469 43.0059 70.8748 39.2389C70.7603 39.0755 70.6471 38.9159 70.536 38.7595C68.1973 35.4641 66.8721 33.5968 76.9878 27.8577C76.9878 27.8577 60.2768 31.945 68.2662 41.0014L68.2672 41.0024ZM78.3749 44.6097C81.3094 44.0483 85.5482 48.5363 76.419 53.185L76.4169 53.1861C76.3351 53.3457 76.2534 53.4261 76.2534 53.4261C88.4816 50.2998 83.9159 42.2859 78.1287 44.2894C77.5578 44.4501 77.3137 44.9301 77.3137 44.9301C77.3137 44.9301 77.6427 44.7704 78.3749 44.6097ZM60.523 44.449C60.523 44.449 51.6379 46.5329 57.3434 47.2539C59.7886 47.5743 64.5983 47.4939 69.0812 47.1736C72.749 46.8532 76.4179 46.2115 76.4179 46.2115C76.4179 46.2115 75.1125 46.7729 74.2168 47.3332C65.1683 49.657 47.8056 48.6167 52.7788 46.2115C57.0176 44.208 60.523 44.4376 60.523 44.4376V44.449ZM58.4047 49.8991L58.4022 49.901C50.1737 52.6253 63.0521 55.6703 74.5448 52.3043C73.3211 51.9036 72.5888 51.1022 72.5888 51.1022C66.9746 52.2229 63.7026 52.1436 59.5455 51.7429C56.4314 51.4291 58.3242 49.9604 58.4022 49.901L58.4047 49.9002V49.8991ZM59.6273 55.1082L59.6202 55.1125C52.138 57.1972 64.1964 61.4396 73.7307 57.4341C72.1813 56.8706 71.0404 56.1506 71.0404 56.1506C66.8016 56.952 64.7533 57.0313 60.9327 56.5513C57.8677 56.2416 59.4975 55.1887 59.6202 55.1125L59.6283 55.1102L59.6273 55.1082ZM79.3545 61.0393C82.29 60.1576 80.904 59.0358 80.904 59.0358L80.9019 59.0264C85.9557 61.2699 69.8974 65.7579 50.4153 62.6327C43.3237 61.5214 53.9218 57.5927 55.796 58.8762C55.796 58.8762 55.2272 58.8762 54.1659 59.1162C53.1067 59.2654 49.8454 60.3193 51.5572 61.0393C56.4487 63.1231 73.8931 62.6421 79.3545 61.0393ZM61.4208 65.8476C70.2242 66.409 83.6761 65.5273 84.0008 61.44C84.0008 61.44 83.3492 63.0428 76.7459 64.2449C69.2468 65.6076 59.9541 65.4469 54.4906 64.5652C54.4906 64.5652 55.6315 65.5273 61.4208 65.8487V65.8476Z" fill="white"></path></svg>