<svg xmlns="http://www.w3.org/2000/svg" width="108" height="84" viewBox="0 0 108 84" fill="none"><path d="M0 0H66C89.196 0 108 18.804 108 42V42C108 65.196 89.196 84 66 84H0V0Z" fill="rgba(25, 30, 48, 1)"></path><path fill-rule="evenodd" clip-rule="evenodd" d="M65.827 18C75.2503 18 77.1617 21.5071 77.5186 23.3307L77.5442 23.4748L77.5637 23.6109L77.5779 23.7384L77.5873 23.8566L77.5928 23.965L77.5949 24.063L77.5945 24.1499L77.5906 24.2581L77.5774 24.4044V34.9874C77.5774 38.1492 75.9962 39.7234 74.3959 40.507L74.2112 40.5939L74.027 40.6741L73.8436 40.7478L73.6616 40.8154C73.6315 40.8261 73.6014 40.8366 73.5714 40.8469L73.3926 40.9056C73.363 40.9149 73.3335 40.924 73.3042 40.9329L73.1297 40.9834C73.1009 40.9914 73.0723 40.9992 73.0438 41.0068L72.8749 41.0498L72.7104 41.088L72.5507 41.1219L72.3216 41.1649L72.1065 41.1996L71.9072 41.2266L71.7256 41.2471L71.4669 41.2691L71.341 41.2764L71.1447 41.2825L59.5646 41.2826C56.2559 41.2826 54.5803 42.8483 53.7324 44.4817L53.6382 44.6704C53.5476 44.8592 53.4675 45.0482 53.3969 45.235L53.3293 45.4209C53.3186 45.4518 53.3081 45.4826 53.2978 45.5132L53.2391 45.6961L53.1859 45.8762L53.1381 46.0531L53.0952 46.2262L53.0571 46.3951L53.0234 46.5592L52.994 46.718L52.957 46.9453L52.9368 47.0887L52.9125 47.2903L52.8944 47.4744L52.8786 47.6893L52.8675 47.9704L52.8675 53.8593L48.7948 53.8598L48.7564 53.8609L48.6821 53.8609L48.5489 53.8561L48.421 53.8468L48.271 53.8308L48.1595 53.8156L48.0395 53.7961L47.9115 53.7719L47.7759 53.7425L47.6332 53.7074L47.484 53.666C47.4079 53.6437 47.3295 53.6189 47.2492 53.5913L47.0859 53.5323L46.9179 53.4653C46.7761 53.4061 46.6298 53.3381 46.4805 53.26L46.2999 53.1613C44.3595 52.0558 42 49.2153 42 41.938C42 33.2864 45.8207 31.1264 48.1132 30.6091L48.3058 30.5687L48.4902 30.5356L48.6656 30.5093L48.8313 30.4889L48.9865 30.4739L49.198 30.4598L49.3817 30.454L49.5351 30.454L49.6557 30.4576L49.7974 30.4674H66.0443V28.8151H54.4161L54.4017 23.3057L54.3949 23.2154L54.3931 23.1333L54.3954 23.0288L54.4002 22.9475L54.4141 22.8096L54.4288 22.7076C54.4316 22.69 54.4347 22.672 54.438 22.6538L54.4605 22.5409C54.469 22.5022 54.4785 22.4623 54.4891 22.4214L54.5245 22.2958C54.5309 22.2744 54.5377 22.2527 54.5448 22.2309L54.5915 22.097C55.1749 20.529 57.4191 18 65.827 18ZM83.3179 30.1391L83.2436 30.1391L83.221 30.1396L79.1325 30.1407L79.1325 36.0296L79.1214 36.3107L79.1056 36.5256L79.0721 36.8423L79.043 37.0547L79.006 37.2819L78.9766 37.4408L78.9244 37.6888L78.884 37.8598L78.8386 38.0349C78.8307 38.0644 78.8225 38.094 78.8141 38.1238L78.7609 38.3039L78.7022 38.4868C78.6919 38.5174 78.6814 38.5482 78.6707 38.579L78.6031 38.765C78.5325 38.9518 78.4524 39.1408 78.3618 39.3296L78.2676 39.5182C77.4197 41.1517 75.744 42.7174 72.4354 42.7174L60.8553 42.7175L60.659 42.7236L60.5331 42.7309L60.2744 42.7529L60.0928 42.7734L59.8935 42.8004L59.7517 42.8226L59.6035 42.8484L59.4493 42.8781L59.2896 42.9119L59.1251 42.9502L58.9562 42.9932L58.7835 43.0412L58.6074 43.0944L58.4286 43.1531L58.2476 43.2176C58.2173 43.2289 58.1869 43.2404 58.1564 43.2522L57.973 43.3259L57.7888 43.4061C57.7272 43.4339 57.6657 43.4629 57.6041 43.493L57.4196 43.587C55.8846 44.4 54.4226 45.9724 54.4226 49.0126V59.5956L54.4131 59.6853L54.4077 59.7749L54.405 59.8921L54.4058 59.9847L54.4127 60.1434L54.4221 60.2616L54.4363 60.3891L54.4558 60.5252L54.4814 60.6693L54.5139 60.8207C54.9471 62.68 57.0044 66 66.173 66C74.7028 66 76.8889 63.3971 77.4328 61.8354L77.4755 61.7042C77.482 61.6828 77.4882 61.6616 77.4941 61.6406L77.526 61.518C77.5307 61.4981 77.5352 61.4784 77.5395 61.4591L77.562 61.3462L77.5791 61.2405L77.5915 61.1424L77.5998 61.0525L77.6059 60.934L77.606 60.8094L77.6015 60.7265L77.5983 60.6943L77.5839 55.1849H65.9557V53.5326H82.2026L82.3443 53.5424L82.4649 53.546L82.6183 53.546L82.802 53.5402L82.9401 53.5319L83.0898 53.5192L83.2503 53.5016C83.2779 53.4982 83.3059 53.4946 83.3344 53.4907L83.5098 53.4644L83.6942 53.4313C85.9578 52.9917 90 50.9608 90 42.062C90 34.1024 87.1774 31.4506 85.1677 30.5713L84.9975 30.5002C84.9695 30.489 84.9417 30.4782 84.9141 30.4677L84.7508 30.4087C84.6973 30.3903 84.6446 30.3731 84.5928 30.3571L84.4406 30.3125C84.4157 30.3056 84.3911 30.299 84.3668 30.2926L84.2241 30.2575L84.0885 30.2281L83.9605 30.2039L83.8405 30.1844L83.729 30.1692L83.6266 30.1577L83.4511 30.1439L83.3179 30.1391ZM70.4929 60.1964C70.4929 59.0334 71.4279 58.0935 72.5849 58.0935C73.7418 58.0935 74.6768 59.0334 74.6768 60.1964C74.6768 61.3594 73.7418 62.2994 72.5849 62.2994C71.4279 62.2994 70.4929 61.3594 70.4929 60.1964ZM57.3232 23.8036C57.3232 22.6406 58.2582 21.7006 59.4151 21.7006C60.5721 21.7006 61.5071 22.6406 61.5071 23.8036C61.5071 24.9666 60.5721 25.9065 59.4151 25.9065C58.2582 25.9065 57.3232 24.9666 57.3232 23.8036Z" fill="white"></path></svg>