<svg xmlns="http://www.w3.org/2000/svg" width="108" height="84" viewBox="0 0 108 84" fill="none"><path d="M0 0H66C89.196 0 108 18.804 108 42C108 65.196 89.196 84 66 84H0V0Z" fill="rgba(25, 30, 48, 1)"></path><path fill-rule="evenodd" clip-rule="evenodd" d="M70.7744 21V24.553H73.6374V23.38H71.9584V21H70.7744ZM68.9454 21L68.1834 22.251L67.4214 21H66.1804V24.553H67.3434V22.792L68.1734 24.069L69.0024 22.792V24.553H70.1864V21H68.9454ZM62.3794 21V22.184H63.4254V24.553H64.6094V22.184H65.6594V21H62.3794ZM60.6744 21V22.174H59.5834V21H58.3984V24.553H59.5934V23.369H60.6744V24.553H61.8594V21H60.6744Z" fill="white"></path><path fill-rule="evenodd" clip-rule="evenodd" d="M71.6342 32.4176H62.6942L62.9102 34.8126H71.4232L70.7792 41.9906L66.0002 43.3166V43.3296L61.2012 41.9906L60.8712 38.3196H63.2192L63.3842 40.1886L65.9952 40.8876L66.0002 40.8866L68.6012 40.1886L68.8742 37.1506H65.9902V37.1446H60.7682L60.1292 30.0796H71.8502L71.6342 32.4176ZM56.6582 26.1816L58.3582 45.2556L65.9852 47.3676L73.6422 45.2456L75.3422 26.1816H56.6582Z" fill="white"></path><path fill-rule="evenodd" clip-rule="evenodd" d="M42 41.8535L43.7 60.9205L51.329 63.0385L58.979 60.9175L60.24 46.7815L57.453 46.0085L57.083 41.8535H42ZM51.34 45.7505H57.19L56.768 50.4835L56.711 51.1125L56.161 57.2685L56.126 57.6635L51.34 58.9905L51.332 58.9935H51.329L46.54 57.6635L46.211 53.9915H48.559L48.725 55.8575L51.33 56.5605H51.332L51.34 56.5575L53.94 55.8555L54.628 48.0895H51.34V45.7505Z" fill="white"></path><path fill-rule="evenodd" clip-rule="evenodd" d="M51.666 36.6719H54.498V37.7019H52.85V37.9079H54.498V40.2769H51.666V39.1949H53.314V38.9889H51.666V36.6719Z" fill="white"></path><path fill-rule="evenodd" clip-rule="evenodd" d="M51.1006 36.6719V40.2769H48.1816V38.5329H49.3886V39.1949H49.8956V36.6719H51.1006Z" fill="white"></path><path fill-rule="evenodd" clip-rule="evenodd" d="M74.9158 41.8535L74.5458 45.9985L71.7578 46.7715L73.0198 60.9205L80.6468 63.0385L88.2978 60.9175L89.9988 41.8535H74.9158ZM74.7948 45.7505H86.5088L86.0868 50.4835L86.0298 51.1125L85.4798 57.2685L85.4448 57.6635L80.6588 58.9905L80.6508 58.9935H80.6488L75.8578 57.6635L75.5298 53.9915H77.8778L78.0438 55.8575L80.6488 56.5605H80.6508L80.6588 56.5575L83.2588 55.8555L83.5308 52.8225H75.4248L75.2158 50.4835H83.7328L83.9468 48.0895H75.0078L74.7948 45.7505Z" fill="white"></path><path fill-rule="evenodd" clip-rule="evenodd" d="M75.7168 36.6719H78.5488V37.8559H76.9008V39.0409H78.5488V40.2249H75.7168V36.6719Z" fill="white"></path><path fill-rule="evenodd" clip-rule="evenodd" d="M79.1152 36.6719H81.9472V37.7019H80.2992V37.9079H81.9472V40.2769H79.1152V39.1949H80.7632V38.9889H79.1152V36.6719Z" fill="white"></path><path fill-rule="evenodd" clip-rule="evenodd" d="M82.5137 36.6719H85.3457V37.7019H83.6977V37.9079H85.3457V40.2769H82.5137V39.1949H84.1617V38.9889H82.5137V36.6719Z" fill="white"></path></svg>